<svg width="47" height="55" viewBox="0 0 47 55" fill="none" xmlns="http://www.w3.org/2000/svg">
<path fill-rule="evenodd" clip-rule="evenodd" d="M38.0271 51.9061L33.4541 51.9121C33.2529 51.2725 33.1719 50.6012 33.2151 49.9321C33.17 49.263 33.249 48.5914 33.4481 47.9511L38.0201 47.9441C38.0736 47.9439 38.1261 47.9301 38.1727 47.9038C38.2193 47.8776 38.2583 47.8398 38.2861 47.7941C38.3124 47.7485 38.3263 47.6967 38.3263 47.6441C38.3263 47.5914 38.3124 47.5397 38.2861 47.4941C37.8967 46.8025 37.353 46.21 36.6973 45.7628C36.0416 45.3155 35.2916 45.0256 34.5056 44.9155C33.7196 44.8054 32.9188 44.8781 32.1654 45.1279C31.4121 45.3778 30.7265 45.7981 30.1621 46.3561C29.6729 46.8397 29.2877 47.4182 29.0301 48.0561H16.9771C16.6089 47.1602 15.9954 46.3864 15.207 45.8237C14.4187 45.2609 13.4876 44.932 12.5207 44.8748C11.5538 44.8175 10.5904 45.0343 9.74121 45.5001C8.892 45.9659 8.19146 46.6619 7.72011 47.5081C7.69454 47.5541 7.68154 47.6061 7.68241 47.6587C7.68329 47.7114 7.69802 47.7629 7.72511 47.8081C7.75281 47.8538 7.79184 47.8917 7.83843 47.918C7.88503 47.9442 7.93762 47.958 7.99111 47.9581L12.5641 47.9511C12.7648 48.5907 12.8455 49.262 12.8021 49.9311C12.8471 50.6001 12.7681 51.2717 12.5691 51.9121L7.99811 51.9191C7.9445 51.9191 7.89182 51.933 7.84519 51.9595C7.79857 51.9859 7.75961 52.024 7.73211 52.0701C7.70578 52.1157 7.69192 52.1674 7.69192 52.2201C7.69192 52.2727 7.70578 52.3245 7.73211 52.3701C8.17856 53.1683 8.82998 53.8329 9.61912 54.2952C10.4083 54.7576 11.3065 55.0009 12.2211 55.0001H12.2291C13.5865 55.003 14.8895 54.4671 15.8521 53.5101C16.341 53.0264 16.7259 52.4479 16.9831 51.8101H29.0401C29.4263 52.7543 30.085 53.5621 30.9323 54.1302C31.7796 54.6984 32.777 55.0012 33.7971 55.0001H33.8091C34.7257 55.0005 35.6258 54.7557 36.416 54.2912C37.2062 53.8266 37.8577 53.1592 38.3031 52.3581C38.3287 52.312 38.3417 52.26 38.3408 52.2074C38.3399 52.1547 38.3252 52.1032 38.2981 52.0581C38.2704 52.0124 38.2313 51.9747 38.1847 51.9486C38.1381 51.9225 38.0855 51.9089 38.0321 51.9091L38.0271 51.9061Z" fill="#FFB619"/>
<path fill-rule="evenodd" clip-rule="evenodd" d="M23.009 29.609C26.709 29.609 35.393 25.25 35.393 14.803C35.393 13.346 35.356 11.938 35.234 10.609C35.1952 8.21397 34.4622 5.88167 33.124 3.895C31.377 1.477 28.322 0 23.009 0C17.696 0 14.642 1.477 12.895 3.895C11.5564 5.88228 10.8231 8.21525 10.784 10.611C10.662 11.941 10.625 13.349 10.625 14.806C10.625 25.252 19.313 29.606 23.008 29.606L23.009 29.609ZM27.051 5.423C26.69 6.317 26.509 6.763 26.151 7.657C24.1074 7.01202 21.9147 7.01202 19.871 7.657C19.511 6.763 19.33 6.317 18.971 5.423C21.5967 4.55848 24.4303 4.55848 27.056 5.423H27.051ZM12.467 12.539C12.6116 12.9134 12.8381 13.2508 13.13 13.5263C13.4219 13.8017 13.7718 14.0084 14.154 14.131C15.233 14.258 17.023 10.387 23.008 10.377C28.994 10.386 30.784 14.258 31.862 14.131C32.2441 14.0082 32.5939 13.8016 32.8858 13.5261C33.1777 13.2506 33.4043 12.9134 33.549 12.539C33.577 13.289 33.589 14.048 33.589 14.805C33.6445 16.6814 33.2955 18.5478 32.5658 20.2774C31.8361 22.007 30.7428 23.5593 29.36 24.829C27.6332 26.5063 25.4004 27.5656 23.009 27.842C20.6176 27.5659 18.3846 26.5065 16.658 24.829C15.2744 23.5589 14.1805 22.0058 13.4506 20.2752C12.7207 18.5447 12.3719 16.6773 12.428 14.8C12.428 14.043 12.439 13.284 12.467 12.534V12.539ZM12.467 12.539L45.997 44.793C45.365 40.94 44.064 35.976 41.453 34.212C39.67 33.012 33.453 29.75 30.794 28.359L30.749 28.335C30.6003 28.2573 30.4324 28.2236 30.2652 28.238C30.098 28.2523 29.9383 28.3141 29.805 28.416C28.4732 29.4588 26.9257 30.1916 25.275 30.561C25.1358 30.5907 25.006 30.6545 24.8975 30.7466C24.7889 30.8388 24.7049 30.9564 24.653 31.089L23.009 35.337L21.365 31.089C21.3131 30.9563 21.2289 30.8385 21.1202 30.7463C21.0114 30.6542 20.8815 30.5905 20.742 30.561C19.0903 30.192 17.5417 29.4592 16.209 28.416C16.0754 28.3138 15.9154 28.2519 15.7478 28.2375C15.5802 28.2232 15.412 28.257 15.263 28.335C12.639 29.71 6.34301 33.035 4.563 34.207C1.558 36.191 0.244005 43.373 0.0110049 44.793C-0.0119442 44.9336 0.00112974 45.0778 0.049005 45.212C0.113005 45.388 1.107 47.912 6.078 49.941C6.3659 49.5861 6.74673 49.3181 7.178 49.167C6.63987 48.9815 6.18308 48.6145 5.886 48.129C5.6697 47.7713 5.55172 47.3628 5.54399 46.9449C5.53627 46.527 5.63907 46.1144 5.842 45.749C6.45542 44.6684 7.33314 43.7612 8.39291 43.1124C9.45268 42.4636 10.6598 42.0945 11.9012 42.0396C13.1426 41.9847 14.3776 42.2459 15.4904 42.7987C16.6033 43.3515 17.5576 44.1777 18.264 45.2H27.749C28.0121 44.8162 28.3119 44.4589 28.644 44.133C30.0132 42.7862 31.8584 42.0337 33.779 42.039C35.0743 42.0329 36.3479 42.3715 37.4691 43.0202C38.5902 43.6688 39.5186 44.6041 40.159 45.73C40.3627 46.0951 40.4665 46.5075 40.4598 46.9256C40.4531 47.3437 40.3363 47.7526 40.121 48.111C39.8252 48.5969 39.3695 48.9646 38.832 49.151C39.2697 49.3029 39.6557 49.575 39.946 49.936C44.904 47.908 45.896 45.389 45.96 45.213C46.0081 45.0785 46.0212 44.934 45.998 44.793L12.467 12.539Z" fill="#1C3E9B"/>
</svg>
