<svg width="205" height="55" viewBox="0 0 205 55" fill="none" xmlns="http://www.w3.org/2000/svg">
<path fill-rule="evenodd" clip-rule="evenodd" d="M38.0271 51.9061L33.4541 51.9121C33.2529 51.2725 33.1719 50.6012 33.2151 49.9321C33.17 49.263 33.249 48.5914 33.4481 47.9511L38.0201 47.9441C38.0736 47.9439 38.1261 47.9301 38.1727 47.9038C38.2193 47.8776 38.2583 47.8398 38.2861 47.7941C38.3124 47.7485 38.3263 47.6967 38.3263 47.6441C38.3263 47.5914 38.3124 47.5397 38.2861 47.4941C37.8967 46.8025 37.353 46.21 36.6973 45.7628C36.0416 45.3155 35.2916 45.0256 34.5056 44.9155C33.7196 44.8054 32.9188 44.8781 32.1654 45.1279C31.4121 45.3778 30.7265 45.7981 30.1621 46.3561C29.6729 46.8397 29.2877 47.4182 29.0301 48.0561H16.9771C16.6089 47.1602 15.9954 46.3864 15.207 45.8237C14.4187 45.2609 13.4876 44.932 12.5207 44.8748C11.5538 44.8175 10.5904 45.0343 9.74121 45.5001C8.892 45.9659 8.19146 46.6619 7.72011 47.5081C7.69454 47.5541 7.68154 47.6061 7.68241 47.6587C7.68329 47.7114 7.69802 47.7629 7.72511 47.8081C7.75281 47.8538 7.79184 47.8917 7.83843 47.918C7.88503 47.9442 7.93762 47.958 7.99111 47.9581L12.5641 47.9511C12.7648 48.5907 12.8455 49.262 12.8021 49.9311C12.8471 50.6001 12.7681 51.2717 12.5691 51.9121L7.99811 51.9191C7.9445 51.9191 7.89182 51.933 7.84519 51.9595C7.79857 51.9859 7.75961 52.024 7.73211 52.0701C7.70578 52.1157 7.69192 52.1674 7.69192 52.2201C7.69192 52.2727 7.70578 52.3245 7.73211 52.3701C8.17856 53.1683 8.82998 53.8329 9.61912 54.2952C10.4083 54.7576 11.3065 55.0009 12.2211 55.0001H12.2291C13.5865 55.003 14.8895 54.4671 15.8521 53.5101C16.341 53.0264 16.7259 52.4479 16.9831 51.8101H29.0401C29.4263 52.7543 30.085 53.5621 30.9323 54.1302C31.7796 54.6984 32.777 55.0012 33.7971 55.0001H33.8091C34.7257 55.0005 35.6258 54.7557 36.416 54.2912C37.2062 53.8266 37.8577 53.1592 38.3031 52.3581C38.3287 52.312 38.3417 52.26 38.3408 52.2074C38.3399 52.1547 38.3252 52.1032 38.2981 52.0581C38.2704 52.0124 38.2313 51.9747 38.1847 51.9486C38.1381 51.9225 38.0855 51.9089 38.0321 51.9091L38.0271 51.9061Z" fill="#FFB619"/>
<path fill-rule="evenodd" clip-rule="evenodd" d="M23.009 29.609C26.709 29.609 35.393 25.25 35.393 14.803C35.393 13.346 35.356 11.938 35.234 10.609C35.1952 8.21397 34.4622 5.88167 33.124 3.895C31.377 1.477 28.322 0 23.009 0C17.696 0 14.642 1.477 12.895 3.895C11.5564 5.88228 10.8231 8.21525 10.784 10.611C10.662 11.941 10.625 13.349 10.625 14.806C10.625 25.252 19.313 29.606 23.008 29.606L23.009 29.609ZM27.051 5.423C26.69 6.317 26.509 6.763 26.151 7.657C24.1074 7.01202 21.9147 7.01202 19.871 7.657C19.511 6.763 19.33 6.317 18.971 5.423C21.5967 4.55848 24.4303 4.55848 27.056 5.423H27.051ZM12.467 12.539C12.6116 12.9134 12.8381 13.2508 13.13 13.5263C13.4219 13.8017 13.7718 14.0084 14.154 14.131C15.233 14.258 17.023 10.387 23.008 10.377C28.994 10.386 30.784 14.258 31.862 14.131C32.2441 14.0082 32.5939 13.8016 32.8858 13.5261C33.1777 13.2506 33.4043 12.9134 33.549 12.539C33.577 13.289 33.589 14.048 33.589 14.805C33.6445 16.6814 33.2955 18.5478 32.5658 20.2774C31.8361 22.007 30.7428 23.5593 29.36 24.829C27.6332 26.5063 25.4004 27.5656 23.009 27.842C20.6176 27.5659 18.3846 26.5065 16.658 24.829C15.2744 23.5589 14.1805 22.0058 13.4506 20.2752C12.7207 18.5447 12.3719 16.6773 12.428 14.8C12.428 14.043 12.439 13.284 12.467 12.534V12.539ZM12.467 12.539L45.997 44.793C45.365 40.94 44.064 35.976 41.453 34.212C39.67 33.012 33.453 29.75 30.794 28.359L30.749 28.335C30.6003 28.2573 30.4324 28.2236 30.2652 28.238C30.098 28.2523 29.9383 28.3141 29.805 28.416C28.4732 29.4588 26.9257 30.1916 25.275 30.561C25.1358 30.5907 25.006 30.6545 24.8975 30.7466C24.7889 30.8388 24.7049 30.9564 24.653 31.089L23.009 35.337L21.365 31.089C21.3131 30.9563 21.2289 30.8385 21.1202 30.7463C21.0114 30.6542 20.8815 30.5905 20.742 30.561C19.0903 30.192 17.5417 29.4592 16.209 28.416C16.0754 28.3138 15.9154 28.2519 15.7478 28.2375C15.5802 28.2232 15.412 28.257 15.263 28.335C12.639 29.71 6.34301 33.035 4.563 34.207C1.558 36.191 0.244005 43.373 0.0110049 44.793C-0.0119442 44.9336 0.00112974 45.0778 0.049005 45.212C0.113005 45.388 1.107 47.912 6.078 49.941C6.3659 49.5861 6.74673 49.3181 7.178 49.167C6.63987 48.9815 6.18308 48.6145 5.886 48.129C5.6697 47.7713 5.55172 47.3628 5.54399 46.9449C5.53627 46.527 5.63907 46.1144 5.842 45.749C6.45542 44.6684 7.33314 43.7612 8.39291 43.1124C9.45268 42.4636 10.6598 42.0945 11.9012 42.0396C13.1426 41.9847 14.3776 42.2459 15.4904 42.7987C16.6033 43.3515 17.5576 44.1777 18.264 45.2H27.749C28.0121 44.8162 28.3119 44.4589 28.644 44.133C30.0132 42.7862 31.8584 42.0337 33.779 42.039C35.0743 42.0329 36.3479 42.3715 37.4691 43.0202C38.5902 43.6688 39.5186 44.6041 40.159 45.73C40.3627 46.0951 40.4665 46.5075 40.4598 46.9256C40.4531 47.3437 40.3363 47.7526 40.121 48.111C39.8252 48.5969 39.3695 48.9646 38.832 49.151C39.2697 49.3029 39.6557 49.575 39.946 49.936C44.904 47.908 45.896 45.389 45.96 45.213C46.0081 45.0785 46.0212 44.934 45.998 44.793L12.467 12.539Z" fill="#1C3E9B"/>
<path d="M82.748 25H79.08C78.6693 25 78.3287 24.9067 78.058 24.72C77.7967 24.524 77.6147 24.2767 77.512 23.978L76.308 20.422H68.552L67.348 23.978C67.2547 24.2393 67.0727 24.4773 66.802 24.692C66.5313 24.8973 66.2 25 65.808 25H62.112L70.008 4.602H74.852L82.748 25ZM69.644 17.202H75.216L73.34 11.616C73.2187 11.2613 73.074 10.846 72.906 10.37C72.7473 9.88467 72.5887 9.362 72.43 8.802C72.2807 9.37133 72.1267 9.89867 71.968 10.384C71.8093 10.8693 71.66 11.2893 71.52 11.644L69.644 17.202ZM92.1816 21.262C92.8162 21.262 93.3809 21.1593 93.8756 20.954C94.3796 20.7393 94.8042 20.436 95.1496 20.044C95.4949 19.652 95.7562 19.176 95.9336 18.616C96.1202 18.0467 96.2136 17.4027 96.2136 16.684V4.602H100.946V16.684C100.946 17.9347 100.74 19.0827 100.33 20.128C99.9282 21.1733 99.3496 22.074 98.5936 22.83C97.8376 23.586 96.9182 24.174 95.8356 24.594C94.7529 25.014 93.5349 25.224 92.1816 25.224C90.8189 25.224 89.5962 25.014 88.5136 24.594C87.4309 24.174 86.5116 23.586 85.7556 22.83C84.9996 22.074 84.4209 21.1733 84.0196 20.128C83.6182 19.0827 83.4176 17.9347 83.4176 16.684V4.602H88.1496V16.67C88.1496 17.3887 88.2382 18.0327 88.4156 18.602C88.6022 19.162 88.8682 19.6427 89.2136 20.044C89.5589 20.436 89.9789 20.7393 90.4736 20.954C90.9776 21.1593 91.5469 21.262 92.1816 21.262ZM121.822 25H117.062V16.376H108.774V25H104.014V4.602H108.774V13.128H117.062V4.602H121.822V25ZM144.162 25H140.494C140.083 25 139.743 24.9067 139.472 24.72C139.211 24.524 139.029 24.2767 138.926 23.978L137.722 20.422H129.966L128.762 23.978C128.669 24.2393 128.487 24.4773 128.216 24.692C127.945 24.8973 127.614 25 127.222 25H123.526L131.422 4.602H136.266L144.162 25ZM131.058 17.202H136.63L134.754 11.616C134.633 11.2613 134.488 10.846 134.32 10.37C134.161 9.88467 134.003 9.362 133.844 8.802C133.695 9.37133 133.541 9.89867 133.382 10.384C133.223 10.8693 133.074 11.2893 132.934 11.644L131.058 17.202ZM148.315 4.602C148.52 4.602 148.693 4.61133 148.833 4.63C148.973 4.64867 149.099 4.686 149.211 4.742C149.323 4.78867 149.43 4.85867 149.533 4.952C149.635 5.04533 149.752 5.17133 149.883 5.33L159.571 17.58C159.533 17.188 159.505 16.81 159.487 16.446C159.468 16.0727 159.459 15.7227 159.459 15.396V4.602H163.631V25H161.167C160.803 25 160.495 24.944 160.243 24.832C159.991 24.72 159.748 24.5147 159.515 24.216L149.897 12.064C149.925 12.4187 149.948 12.7687 149.967 13.114C149.985 13.45 149.995 13.7673 149.995 14.066V25H145.823V4.602H148.315ZM185.495 14.794C185.495 16.2687 185.238 17.6313 184.725 18.882C184.221 20.1233 183.507 21.2013 182.583 22.116C181.659 23.0213 180.543 23.7307 179.237 24.244C177.939 24.748 176.497 25 174.911 25H166.987V4.602H174.911C176.497 4.602 177.939 4.85867 179.237 5.372C180.543 5.88533 181.659 6.59467 182.583 7.5C183.507 8.40533 184.221 9.48333 184.725 10.734C185.238 11.9753 185.495 13.3287 185.495 14.794ZM180.651 14.794C180.651 13.786 180.52 12.876 180.259 12.064C179.997 11.252 179.619 10.566 179.125 10.006C178.639 9.43667 178.042 9.00267 177.333 8.704C176.623 8.396 175.816 8.242 174.911 8.242H171.747V21.36H174.911C175.816 21.36 176.623 21.2107 177.333 20.912C178.042 20.604 178.639 20.17 179.125 19.61C179.619 19.0407 179.997 18.35 180.259 17.538C180.52 16.726 180.651 15.8113 180.651 14.794ZM196.811 17.244V25H192.079V17.244L184.687 4.602H188.859C189.269 4.602 189.596 4.7 189.839 4.896C190.081 5.08267 190.277 5.32533 190.427 5.624L193.311 11.56C193.544 12.036 193.759 12.4747 193.955 12.876C194.151 13.2773 194.323 13.674 194.473 14.066C194.613 13.6647 194.781 13.2633 194.977 12.862C195.173 12.4607 195.383 12.0267 195.607 11.56L198.463 5.624C198.519 5.50267 198.593 5.38133 198.687 5.26C198.789 5.13867 198.901 5.03133 199.023 4.938C199.153 4.83533 199.298 4.756 199.457 4.7C199.625 4.63467 199.807 4.602 200.003 4.602H204.203L196.811 17.244Z" fill="#333333"/>
<path d="M62.2894 36.969H63.4164C63.5377 36.969 63.6381 36.9993 63.7174 37.06C63.7967 37.1207 63.8504 37.1977 63.8784 37.291L65.9504 44.263C65.9877 44.389 66.0204 44.5243 66.0484 44.669C66.0811 44.8137 66.1114 44.9653 66.1394 45.124C66.1721 44.9653 66.2047 44.8137 66.2374 44.669C66.2701 44.5197 66.3074 44.3843 66.3494 44.263L68.7084 37.291C68.7364 37.2117 68.7901 37.1393 68.8694 37.074C68.9534 37.004 69.0537 36.969 69.1704 36.969H69.5624C69.6837 36.969 69.7817 36.9993 69.8564 37.06C69.9357 37.1207 69.9917 37.1977 70.0244 37.291L72.3694 44.263C72.4534 44.5057 72.5281 44.7833 72.5934 45.096C72.6214 44.942 72.6471 44.795 72.6704 44.655C72.6937 44.515 72.7241 44.3843 72.7614 44.263L74.8404 37.291C74.8637 37.207 74.9151 37.1323 74.9944 37.067C75.0784 37.0017 75.1787 36.969 75.2954 36.969H76.3524L73.2234 47H72.0054L69.4644 39.349C69.4131 39.2043 69.3664 39.0363 69.3244 38.845C69.3011 38.9383 69.2777 39.0293 69.2544 39.118C69.2357 39.202 69.2147 39.279 69.1914 39.349L66.6364 47H65.4184L62.2894 36.969ZM80.0614 39.797C80.4861 39.797 80.8781 39.8693 81.2374 40.014C81.5968 40.154 81.9071 40.3593 82.1684 40.63C82.4298 40.896 82.6328 41.2273 82.7774 41.624C82.9268 42.016 83.0014 42.464 83.0014 42.968C83.0014 43.164 82.9804 43.2947 82.9384 43.36C82.8964 43.4253 82.8171 43.458 82.7004 43.458H77.9824C77.9918 43.906 78.0524 44.2957 78.1644 44.627C78.2764 44.9583 78.4304 45.236 78.6264 45.46C78.8224 45.6793 79.0558 45.845 79.3264 45.957C79.5971 46.0643 79.9004 46.118 80.2364 46.118C80.5491 46.118 80.8174 46.083 81.0414 46.013C81.2701 45.9383 81.4661 45.859 81.6294 45.775C81.7928 45.691 81.9281 45.614 82.0354 45.544C82.1474 45.4693 82.2431 45.432 82.3224 45.432C82.4251 45.432 82.5044 45.4717 82.5604 45.551L82.9104 46.006C82.7564 46.1927 82.5721 46.356 82.3574 46.496C82.1428 46.6313 81.9118 46.7433 81.6644 46.832C81.4218 46.9207 81.1698 46.986 80.9084 47.028C80.6471 47.0747 80.3881 47.098 80.1314 47.098C79.6414 47.098 79.1888 47.0163 78.7734 46.853C78.3628 46.685 78.0058 46.4423 77.7024 46.125C77.4038 45.803 77.1704 45.4063 77.0024 44.935C76.8344 44.4637 76.7504 43.9223 76.7504 43.311C76.7504 42.8163 76.8251 42.3543 76.9744 41.925C77.1284 41.4957 77.3478 41.1247 77.6324 40.812C77.9171 40.4947 78.2648 40.2473 78.6754 40.07C79.0861 39.888 79.5481 39.797 80.0614 39.797ZM80.0894 40.714C79.4874 40.714 79.0138 40.889 78.6684 41.239C78.3231 41.5843 78.1084 42.065 78.0244 42.681H81.8814C81.8814 42.3917 81.8418 42.128 81.7624 41.89C81.6831 41.6473 81.5664 41.4397 81.4124 41.267C81.2584 41.0897 81.0694 40.9543 80.8454 40.861C80.6261 40.763 80.3741 40.714 80.0894 40.714ZM87.3033 47V39.909H88.0173C88.1526 39.909 88.2459 39.9347 88.2973 39.986C88.3486 40.0373 88.3836 40.126 88.4023 40.252L88.4863 41.358C88.7289 40.8633 89.0276 40.4783 89.3823 40.203C89.7416 39.923 90.1616 39.783 90.6423 39.783C90.8383 39.783 91.0156 39.8063 91.1743 39.853C91.3329 39.895 91.4799 39.9557 91.6153 40.035L91.4543 40.966C91.4216 41.0827 91.3493 41.141 91.2373 41.141C91.1719 41.141 91.0716 41.12 90.9363 41.078C90.8009 41.0313 90.6119 41.008 90.3693 41.008C89.9353 41.008 89.5713 41.134 89.2773 41.386C88.9879 41.638 88.7453 42.0043 88.5493 42.485V47H87.3033ZM95.7567 39.797C96.1814 39.797 96.5734 39.8693 96.9327 40.014C97.2921 40.154 97.6024 40.3593 97.8637 40.63C98.1251 40.896 98.3281 41.2273 98.4727 41.624C98.6221 42.016 98.6967 42.464 98.6967 42.968C98.6967 43.164 98.6757 43.2947 98.6337 43.36C98.5917 43.4253 98.5124 43.458 98.3957 43.458H93.6777C93.6871 43.906 93.7477 44.2957 93.8597 44.627C93.9717 44.9583 94.1257 45.236 94.3217 45.46C94.5177 45.6793 94.7511 45.845 95.0217 45.957C95.2924 46.0643 95.5957 46.118 95.9317 46.118C96.2444 46.118 96.5127 46.083 96.7367 46.013C96.9654 45.9383 97.1614 45.859 97.3247 45.775C97.4881 45.691 97.6234 45.614 97.7307 45.544C97.8427 45.4693 97.9384 45.432 98.0177 45.432C98.1204 45.432 98.1997 45.4717 98.2557 45.551L98.6057 46.006C98.4517 46.1927 98.2674 46.356 98.0527 46.496C97.8381 46.6313 97.6071 46.7433 97.3597 46.832C97.1171 46.9207 96.8651 46.986 96.6037 47.028C96.3424 47.0747 96.0834 47.098 95.8267 47.098C95.3367 47.098 94.8841 47.0163 94.4687 46.853C94.0581 46.685 93.7011 46.4423 93.3977 46.125C93.0991 45.803 92.8657 45.4063 92.6977 44.935C92.5297 44.4637 92.4457 43.9223 92.4457 43.311C92.4457 42.8163 92.5204 42.3543 92.6697 41.925C92.8237 41.4957 93.0431 41.1247 93.3277 40.812C93.6124 40.4947 93.9601 40.2473 94.3707 40.07C94.7814 39.888 95.2434 39.797 95.7567 39.797ZM95.7847 40.714C95.1827 40.714 94.7091 40.889 94.3637 41.239C94.0184 41.5843 93.8037 42.065 93.7197 42.681H97.5767C97.5767 42.3917 97.5371 42.128 97.4577 41.89C97.3784 41.6473 97.2617 41.4397 97.1077 41.267C96.9537 41.0897 96.7647 40.9543 96.5407 40.861C96.3214 40.763 96.0694 40.714 95.7847 40.714ZM100.292 49.401V39.909H101.034C101.211 39.909 101.323 39.9953 101.37 40.168L101.475 41.008C101.778 40.6393 102.123 40.343 102.511 40.119C102.903 39.895 103.353 39.783 103.862 39.783C104.268 39.783 104.636 39.8623 104.968 40.021C105.299 40.175 105.581 40.406 105.815 40.714C106.048 41.0173 106.228 41.3953 106.354 41.848C106.48 42.3007 106.543 42.821 106.543 43.409C106.543 43.9317 106.473 44.4193 106.333 44.872C106.193 45.32 105.992 45.7097 105.731 46.041C105.469 46.3677 105.147 46.6267 104.765 46.818C104.387 47.0047 103.96 47.098 103.484 47.098C103.045 47.098 102.669 47.0257 102.357 46.881C102.049 46.7363 101.776 46.531 101.538 46.265V49.401H100.292ZM103.449 40.791C103.043 40.791 102.686 40.8843 102.378 41.071C102.074 41.2577 101.794 41.5213 101.538 41.862V45.292C101.766 45.6 102.016 45.817 102.287 45.943C102.562 46.069 102.868 46.132 103.204 46.132C103.862 46.132 104.368 45.8963 104.723 45.425C105.077 44.9537 105.255 44.2817 105.255 43.409C105.255 42.947 105.213 42.5503 105.129 42.219C105.049 41.8877 104.933 41.617 104.779 41.407C104.625 41.1923 104.436 41.036 104.212 40.938C103.988 40.84 103.733 40.791 103.449 40.791ZM113.224 47H112.671C112.55 47 112.452 46.9813 112.377 46.944C112.302 46.9067 112.253 46.8273 112.23 46.706L112.09 46.048C111.903 46.216 111.721 46.3677 111.544 46.503C111.367 46.6337 111.18 46.7457 110.984 46.839C110.788 46.9277 110.578 46.9953 110.354 47.042C110.135 47.0887 109.89 47.112 109.619 47.112C109.344 47.112 109.085 47.0747 108.842 47C108.604 46.9207 108.396 46.804 108.219 46.65C108.042 46.496 107.899 46.3023 107.792 46.069C107.689 45.831 107.638 45.551 107.638 45.229C107.638 44.949 107.715 44.6807 107.869 44.424C108.023 44.1627 108.27 43.9317 108.611 43.731C108.956 43.5303 109.407 43.367 109.962 43.241C110.517 43.1103 111.196 43.0357 111.999 43.017V42.464C111.999 41.9133 111.88 41.498 111.642 41.218C111.409 40.9333 111.061 40.791 110.599 40.791C110.296 40.791 110.039 40.8307 109.829 40.91C109.624 40.9847 109.444 41.071 109.29 41.169C109.141 41.2623 109.01 41.3487 108.898 41.428C108.791 41.5027 108.683 41.54 108.576 41.54C108.492 41.54 108.417 41.519 108.352 41.477C108.291 41.4303 108.242 41.3743 108.205 41.309L107.981 40.91C108.373 40.532 108.795 40.2497 109.248 40.063C109.701 39.8763 110.202 39.783 110.753 39.783C111.15 39.783 111.502 39.8483 111.81 39.979C112.118 40.1097 112.377 40.2917 112.587 40.525C112.797 40.7583 112.956 41.0407 113.063 41.372C113.17 41.7033 113.224 42.0673 113.224 42.464V47ZM109.99 46.237C110.209 46.237 110.41 46.216 110.592 46.174C110.774 46.1273 110.944 46.0643 111.103 45.985C111.266 45.901 111.42 45.8007 111.565 45.684C111.714 45.5673 111.859 45.4343 111.999 45.285V43.808C111.425 43.8267 110.937 43.8733 110.536 43.948C110.135 44.018 109.808 44.1113 109.556 44.228C109.304 44.3447 109.12 44.4823 109.003 44.641C108.891 44.7997 108.835 44.977 108.835 45.173C108.835 45.3597 108.865 45.5207 108.926 45.656C108.987 45.7913 109.068 45.9033 109.171 45.992C109.274 46.076 109.395 46.139 109.535 46.181C109.675 46.2183 109.827 46.237 109.99 46.237ZM116.498 39.909V47H115.252V39.909H116.498ZM116.778 37.683C116.778 37.8043 116.752 37.9187 116.701 38.026C116.654 38.1287 116.589 38.222 116.505 38.306C116.426 38.3853 116.332 38.4483 116.225 38.495C116.118 38.5417 116.003 38.565 115.882 38.565C115.761 38.565 115.646 38.5417 115.539 38.495C115.436 38.4483 115.343 38.3853 115.259 38.306C115.18 38.222 115.117 38.1287 115.07 38.026C115.023 37.9187 115 37.8043 115 37.683C115 37.5617 115.023 37.4473 115.07 37.34C115.117 37.228 115.18 37.1323 115.259 37.053C115.343 36.969 115.436 36.9037 115.539 36.857C115.646 36.8103 115.761 36.787 115.882 36.787C116.003 36.787 116.118 36.8103 116.225 36.857C116.332 36.9037 116.426 36.969 116.505 37.053C116.589 37.1323 116.654 37.228 116.701 37.34C116.752 37.4473 116.778 37.5617 116.778 37.683ZM118.694 47V39.909H119.408C119.543 39.909 119.637 39.9347 119.688 39.986C119.739 40.0373 119.774 40.126 119.793 40.252L119.877 41.358C120.12 40.8633 120.418 40.4783 120.773 40.203C121.132 39.923 121.552 39.783 122.033 39.783C122.229 39.783 122.406 39.8063 122.565 39.853C122.724 39.895 122.871 39.9557 123.006 40.035L122.845 40.966C122.812 41.0827 122.74 41.141 122.628 41.141C122.563 41.141 122.462 41.12 122.327 41.078C122.192 41.0313 122.003 41.008 121.76 41.008C121.326 41.008 120.962 41.134 120.668 41.386C120.379 41.638 120.136 42.0043 119.94 42.485V47H118.694ZM129.854 39.797C130.279 39.797 130.671 39.8693 131.03 40.014C131.39 40.154 131.7 40.3593 131.961 40.63C132.223 40.896 132.426 41.2273 132.57 41.624C132.72 42.016 132.794 42.464 132.794 42.968C132.794 43.164 132.773 43.2947 132.731 43.36C132.689 43.4253 132.61 43.458 132.493 43.458H127.775C127.785 43.906 127.845 44.2957 127.957 44.627C128.069 44.9583 128.223 45.236 128.419 45.46C128.615 45.6793 128.849 45.845 129.119 45.957C129.39 46.0643 129.693 46.118 130.029 46.118C130.342 46.118 130.61 46.083 130.834 46.013C131.063 45.9383 131.259 45.859 131.422 45.775C131.586 45.691 131.721 45.614 131.828 45.544C131.94 45.4693 132.036 45.432 132.115 45.432C132.218 45.432 132.297 45.4717 132.353 45.551L132.703 46.006C132.549 46.1927 132.365 46.356 132.15 46.496C131.936 46.6313 131.705 46.7433 131.457 46.832C131.215 46.9207 130.963 46.986 130.701 47.028C130.44 47.0747 130.181 47.098 129.924 47.098C129.434 47.098 128.982 47.0163 128.566 46.853C128.156 46.685 127.799 46.4423 127.495 46.125C127.197 45.803 126.963 45.4063 126.795 44.935C126.627 44.4637 126.543 43.9223 126.543 43.311C126.543 42.8163 126.618 42.3543 126.767 41.925C126.921 41.4957 127.141 41.1247 127.425 40.812C127.71 40.4947 128.058 40.2473 128.468 40.07C128.879 39.888 129.341 39.797 129.854 39.797ZM129.882 40.714C129.28 40.714 128.807 40.889 128.461 41.239C128.116 41.5843 127.901 42.065 127.817 42.681H131.674C131.674 42.3917 131.635 42.128 131.555 41.89C131.476 41.6473 131.359 41.4397 131.205 41.267C131.051 41.0897 130.862 40.9543 130.638 40.861C130.419 40.763 130.167 40.714 129.882 40.714ZM133.315 39.909H134.337C134.435 39.909 134.517 39.9347 134.582 39.986C134.648 40.0373 134.694 40.098 134.722 40.168L136.521 44.732C136.587 44.9 136.638 45.068 136.675 45.236C136.713 45.404 136.748 45.5697 136.78 45.733C136.818 45.5697 136.857 45.404 136.899 45.236C136.941 45.068 136.995 44.9 137.06 44.732L138.88 40.168C138.908 40.0933 138.953 40.0327 139.013 39.986C139.079 39.9347 139.158 39.909 139.251 39.909H140.224L137.333 47H136.206L133.315 39.909ZM144.005 39.797C144.429 39.797 144.821 39.8693 145.181 40.014C145.54 40.154 145.85 40.3593 146.112 40.63C146.373 40.896 146.576 41.2273 146.721 41.624C146.87 42.016 146.945 42.464 146.945 42.968C146.945 43.164 146.924 43.2947 146.882 43.36C146.84 43.4253 146.76 43.458 146.644 43.458H141.926C141.935 43.906 141.996 44.2957 142.108 44.627C142.22 44.9583 142.374 45.236 142.57 45.46C142.766 45.6793 142.999 45.845 143.27 45.957C143.54 46.0643 143.844 46.118 144.18 46.118C144.492 46.118 144.761 46.083 144.985 46.013C145.213 45.9383 145.409 45.859 145.573 45.775C145.736 45.691 145.871 45.614 145.979 45.544C146.091 45.4693 146.186 45.432 146.266 45.432C146.368 45.432 146.448 45.4717 146.504 45.551L146.854 46.006C146.7 46.1927 146.515 46.356 146.301 46.496C146.086 46.6313 145.855 46.7433 145.608 46.832C145.365 46.9207 145.113 46.986 144.852 47.028C144.59 47.0747 144.331 47.098 144.075 47.098C143.585 47.098 143.132 47.0163 142.717 46.853C142.306 46.685 141.949 46.4423 141.646 46.125C141.347 45.803 141.114 45.4063 140.946 44.935C140.778 44.4637 140.694 43.9223 140.694 43.311C140.694 42.8163 140.768 42.3543 140.918 41.925C141.072 41.4957 141.291 41.1247 141.576 40.812C141.86 40.4947 142.208 40.2473 142.619 40.07C143.029 39.888 143.491 39.797 144.005 39.797ZM144.033 40.714C143.431 40.714 142.957 40.889 142.612 41.239C142.266 41.5843 142.052 42.065 141.968 42.681H145.825C145.825 42.3917 145.785 42.128 145.706 41.89C145.626 41.6473 145.51 41.4397 145.356 41.267C145.202 41.0897 145.013 40.9543 144.789 40.861C144.569 40.763 144.317 40.714 144.033 40.714ZM148.54 47V39.909H149.254C149.389 39.909 149.482 39.9347 149.534 39.986C149.585 40.0373 149.62 40.126 149.639 40.252L149.723 41.358C149.965 40.8633 150.264 40.4783 150.619 40.203C150.978 39.923 151.398 39.783 151.879 39.783C152.075 39.783 152.252 39.8063 152.411 39.853C152.569 39.895 152.716 39.9557 152.852 40.035L152.691 40.966C152.658 41.0827 152.586 41.141 152.474 41.141C152.408 41.141 152.308 41.12 152.173 41.078C152.037 41.0313 151.848 41.008 151.606 41.008C151.172 41.008 150.808 41.134 150.514 41.386C150.224 41.638 149.982 42.0043 149.786 42.485V47H148.54ZM156.265 49.093C156.223 49.1863 156.169 49.261 156.104 49.317C156.043 49.373 155.948 49.401 155.817 49.401H154.893L156.188 46.587L153.262 39.909H154.34C154.447 39.909 154.531 39.937 154.592 39.993C154.653 40.0443 154.697 40.1027 154.725 40.168L156.622 44.634C156.664 44.7367 156.699 44.8393 156.727 44.942C156.76 45.0447 156.788 45.1497 156.811 45.257C156.844 45.1497 156.876 45.0447 156.909 44.942C156.942 44.8393 156.979 44.7343 157.021 44.627L158.862 40.168C158.89 40.0933 158.937 40.0327 159.002 39.986C159.072 39.9347 159.147 39.909 159.226 39.909H160.22L156.265 49.093ZM163.499 47.112C162.939 47.112 162.507 46.9557 162.204 46.643C161.905 46.3303 161.756 45.88 161.756 45.292V40.952H160.902C160.827 40.952 160.764 40.931 160.713 40.889C160.662 40.8423 160.636 40.7723 160.636 40.679V40.182L161.798 40.035L162.085 37.844C162.094 37.774 162.125 37.718 162.176 37.676C162.227 37.6293 162.293 37.606 162.372 37.606H163.002V40.049H165.032V40.952H163.002V45.208C163.002 45.5067 163.074 45.7283 163.219 45.873C163.364 46.0177 163.55 46.09 163.779 46.09C163.91 46.09 164.022 46.0737 164.115 46.041C164.213 46.0037 164.297 45.964 164.367 45.922C164.437 45.88 164.495 45.8427 164.542 45.81C164.593 45.7727 164.638 45.754 164.675 45.754C164.74 45.754 164.799 45.7937 164.85 45.873L165.214 46.468C164.999 46.6687 164.74 46.8273 164.437 46.944C164.134 47.056 163.821 47.112 163.499 47.112ZM166.573 47V36.689H167.819V40.861C168.122 40.539 168.458 40.2823 168.827 40.091C169.195 39.895 169.62 39.797 170.101 39.797C170.488 39.797 170.829 39.8623 171.123 39.993C171.421 40.119 171.669 40.301 171.865 40.539C172.065 40.7723 172.217 41.0547 172.32 41.386C172.422 41.7173 172.474 42.0837 172.474 42.485V47H171.228V42.485C171.228 41.9483 171.104 41.533 170.857 41.239C170.614 40.9403 170.241 40.791 169.737 40.791C169.368 40.791 169.023 40.8797 168.701 41.057C168.383 41.2343 168.089 41.4747 167.819 41.778V47H166.573ZM175.738 39.909V47H174.492V39.909H175.738ZM176.018 37.683C176.018 37.8043 175.992 37.9187 175.941 38.026C175.894 38.1287 175.829 38.222 175.745 38.306C175.666 38.3853 175.572 38.4483 175.465 38.495C175.358 38.5417 175.243 38.565 175.122 38.565C175.001 38.565 174.886 38.5417 174.779 38.495C174.676 38.4483 174.583 38.3853 174.499 38.306C174.42 38.222 174.357 38.1287 174.31 38.026C174.263 37.9187 174.24 37.8043 174.24 37.683C174.24 37.5617 174.263 37.4473 174.31 37.34C174.357 37.228 174.42 37.1323 174.499 37.053C174.583 36.969 174.676 36.9037 174.779 36.857C174.886 36.8103 175.001 36.787 175.122 36.787C175.243 36.787 175.358 36.8103 175.465 36.857C175.572 36.9037 175.666 36.969 175.745 37.053C175.829 37.1323 175.894 37.228 175.941 37.34C175.992 37.4473 176.018 37.5617 176.018 37.683ZM177.934 47V39.909H178.676C178.853 39.909 178.965 39.9953 179.012 40.168L179.11 40.938C179.418 40.5973 179.761 40.322 180.139 40.112C180.522 39.902 180.963 39.797 181.462 39.797C181.849 39.797 182.19 39.8623 182.484 39.993C182.783 40.119 183.03 40.301 183.226 40.539C183.427 40.7723 183.578 41.0547 183.681 41.386C183.784 41.7173 183.835 42.0837 183.835 42.485V47H182.589V42.485C182.589 41.9483 182.465 41.533 182.218 41.239C181.975 40.9403 181.602 40.791 181.098 40.791C180.729 40.791 180.384 40.8797 180.062 41.057C179.745 41.2343 179.451 41.4747 179.18 41.778V47H177.934ZM188.1 39.79C188.408 39.79 188.695 39.825 188.961 39.895C189.232 39.9603 189.477 40.0583 189.696 40.189H191.621V40.651C191.621 40.805 191.523 40.903 191.327 40.945L190.522 41.057C190.681 41.3603 190.76 41.6987 190.76 42.072C190.76 42.4173 190.693 42.7323 190.557 43.017C190.427 43.297 190.242 43.5373 190.004 43.738C189.771 43.9387 189.491 44.0927 189.164 44.2C188.842 44.3073 188.488 44.361 188.1 44.361C187.769 44.361 187.456 44.3213 187.162 44.242C187.013 44.3353 186.899 44.4357 186.819 44.543C186.745 44.6503 186.707 44.7553 186.707 44.858C186.707 45.026 186.775 45.1543 186.91 45.243C187.046 45.327 187.225 45.3877 187.449 45.425C187.673 45.4623 187.928 45.4857 188.212 45.495C188.497 45.5043 188.786 45.5207 189.08 45.544C189.379 45.5627 189.671 45.5977 189.955 45.649C190.24 45.7003 190.494 45.7843 190.718 45.901C190.942 46.0177 191.122 46.1787 191.257 46.384C191.393 46.5893 191.46 46.8553 191.46 47.182C191.46 47.4853 191.383 47.7793 191.229 48.064C191.08 48.3487 190.863 48.6007 190.578 48.82C190.294 49.044 189.946 49.2213 189.535 49.352C189.125 49.4873 188.66 49.555 188.142 49.555C187.624 49.555 187.169 49.5037 186.777 49.401C186.39 49.2983 186.068 49.1607 185.811 48.988C185.555 48.8153 185.361 48.6147 185.23 48.386C185.104 48.162 185.041 47.9263 185.041 47.679C185.041 47.329 185.151 47.0327 185.37 46.79C185.594 46.5427 185.9 46.3467 186.287 46.202C186.087 46.1087 185.926 45.985 185.804 45.831C185.688 45.6723 185.629 45.4623 185.629 45.201C185.629 45.0983 185.648 44.9933 185.685 44.886C185.723 44.774 185.779 44.6643 185.853 44.557C185.933 44.4497 186.028 44.347 186.14 44.249C186.252 44.151 186.383 44.0647 186.532 43.99C186.182 43.794 185.907 43.535 185.706 43.213C185.51 42.8863 185.412 42.506 185.412 42.072C185.412 41.7267 185.478 41.414 185.608 41.134C185.744 40.8493 185.93 40.609 186.168 40.413C186.406 40.2123 186.689 40.0583 187.015 39.951C187.347 39.8437 187.708 39.79 188.1 39.79ZM190.312 47.385C190.312 47.2077 190.263 47.0653 190.165 46.958C190.067 46.8507 189.934 46.769 189.766 46.713C189.598 46.6523 189.405 46.608 189.185 46.58C188.966 46.552 188.735 46.5333 188.492 46.524C188.25 46.51 188.002 46.496 187.75 46.482C187.498 46.468 187.258 46.4423 187.029 46.405C186.763 46.531 186.546 46.685 186.378 46.867C186.215 47.049 186.133 47.266 186.133 47.518C186.133 47.6767 186.173 47.8237 186.252 47.959C186.336 48.099 186.462 48.218 186.63 48.316C186.798 48.4187 187.008 48.498 187.26 48.554C187.517 48.6147 187.818 48.645 188.163 48.645C188.499 48.645 188.8 48.6147 189.066 48.554C189.332 48.4933 189.556 48.407 189.738 48.295C189.925 48.183 190.067 48.05 190.165 47.896C190.263 47.742 190.312 47.5717 190.312 47.385ZM188.1 43.535C188.352 43.535 188.574 43.5 188.765 43.43C188.961 43.36 189.125 43.262 189.255 43.136C189.386 43.01 189.484 42.8607 189.549 42.688C189.615 42.5107 189.647 42.317 189.647 42.107C189.647 41.673 189.514 41.3277 189.248 41.071C188.987 40.8143 188.604 40.686 188.1 40.686C187.601 40.686 187.218 40.8143 186.952 41.071C186.691 41.3277 186.56 41.673 186.56 42.107C186.56 42.317 186.593 42.5107 186.658 42.688C186.728 42.8607 186.829 43.01 186.959 43.136C187.09 43.262 187.251 43.36 187.442 43.43C187.634 43.5 187.853 43.535 188.1 43.535ZM192.458 46.23C192.458 46.1087 192.479 45.9943 192.521 45.887C192.567 45.7797 192.628 45.6863 192.703 45.607C192.782 45.5277 192.875 45.4647 192.983 45.418C193.09 45.3713 193.204 45.348 193.326 45.348C193.447 45.348 193.561 45.3713 193.669 45.418C193.776 45.4647 193.869 45.5277 193.949 45.607C194.028 45.6863 194.089 45.7797 194.131 45.887C194.177 45.9943 194.201 46.1087 194.201 46.23C194.201 46.356 194.177 46.4727 194.131 46.58C194.089 46.6827 194.028 46.7737 193.949 46.853C193.869 46.9323 193.776 46.993 193.669 47.035C193.561 47.0817 193.447 47.105 193.326 47.105C193.204 47.105 193.09 47.0817 192.983 47.035C192.875 46.993 192.782 46.9323 192.703 46.853C192.628 46.7737 192.567 46.6827 192.521 46.58C192.479 46.4727 192.458 46.356 192.458 46.23Z" fill="#666666"/>
</svg>
