<svg width="37" height="50" viewBox="0 0 37 50" fill="none" xmlns="http://www.w3.org/2000/svg">
<path d="M18.1081 0C8.12325 0 0 8.12325 0 18.108C0 30.4995 16.205 48.6908 16.8949 49.4591C17.543 50.1809 18.6744 50.1796 19.3213 49.4591C20.0113 48.6908 36.2163 30.4995 36.2163 18.108C36.2161 8.12325 28.0929 0 18.1081 0ZM18.1081 27.2187C13.0845 27.2187 8.99757 23.1317 8.99757 18.108C8.99757 13.0844 13.0846 8.99747 18.1081 8.99747C23.1317 8.99747 27.2186 13.0845 27.2186 18.1081C27.2186 23.1318 23.1317 27.2187 18.1081 27.2187Z" fill="#1C3E9B"/>
</svg>
