<svg width="17" height="16" viewBox="0 0 17 16" fill="none" xmlns="http://www.w3.org/2000/svg">
<path d="M16.2254 13.763L12.4965 10.0338C13.1301 9.02518 13.4978 7.83301 13.4978 6.55359C13.4978 2.93393 10.5635 0 6.94397 0C3.32445 0 0.390381 2.93393 0.390381 6.55359C0.390381 10.1734 3.32431 13.107 6.94397 13.107C8.33631 13.107 9.62597 12.6717 10.6872 11.9321L14.3717 15.6169C14.6277 15.8726 14.9634 16 15.2986 16C15.6342 16 15.9694 15.8726 16.2258 15.6169C16.7375 15.1047 16.7375 14.275 16.2254 13.763ZM6.94397 10.9838C4.4975 10.9838 2.51406 9.00046 2.51406 6.55386C2.51406 4.10726 4.4975 2.12381 6.94397 2.12381C9.39057 2.12381 11.3739 4.10726 11.3739 6.55386C11.3739 9.00046 9.39057 10.9838 6.94397 10.9838Z" fill="white"/>
</svg>
