<svg width="24" height="15" viewBox="0 0 24 15" fill="none" xmlns="http://www.w3.org/2000/svg">
<path d="M6.9396 0C7.64228 0 8.28107 0.0580718 8.86179 0.18583C9.4367 0.307781 9.93031 0.511034 10.3484 0.795586C10.7607 1.07433 11.0801 1.4518 11.3066 1.91638C11.5331 2.38095 11.6434 2.96167 11.6434 3.64692C11.6434 4.39024 11.475 5.00581 11.1382 5.50523C10.8014 5.99884 10.302 6.40534 9.63415 6.71893C10.5401 6.98026 11.2137 7.43902 11.6551 8.08943C12.1022 8.74564 12.3229 9.52962 12.3229 10.453C12.3229 11.2021 12.1777 11.8409 11.8931 12.381C11.6028 12.9268 11.2137 13.374 10.7259 13.7166C10.2381 14.0592 9.6806 14.3148 9.05343 14.4832C8.43206 14.6458 7.78746 14.7329 7.13124 14.7329H0V0H6.9396ZM6.52149 5.94657C7.0964 5.94657 7.57259 5.81301 7.95006 5.53426C8.32172 5.26132 8.50174 4.81417 8.50174 4.1928C8.50174 3.85018 8.44367 3.56562 8.32172 3.34495C8.19396 3.12427 8.03136 2.95587 7.8223 2.83391C7.61324 2.70616 7.38095 2.62486 7.10801 2.57259C6.84088 2.52033 6.56214 2.4971 6.27178 2.4971H3.24042V5.94077H6.52149V5.94657ZM6.70151 12.2184C7.02091 12.2184 7.32288 12.1893 7.61324 12.1254C7.9036 12.0616 8.15912 11.9628 8.37979 11.8118C8.59466 11.6667 8.77468 11.475 8.90825 11.2253C9.04181 10.9756 9.09988 10.6562 9.09988 10.2729C9.09988 9.5122 8.88502 8.97793 8.46109 8.64692C8.03717 8.32172 7.46806 8.16493 6.7712 8.16493H3.24623V12.2184H6.70151Z" fill="#666666"/>
<path d="M16.9512 12.166C17.3926 12.5958 18.0255 12.8106 18.8444 12.8106C19.4367 12.8106 19.9477 12.6596 20.3717 12.3635C20.7956 12.0673 21.0569 11.7479 21.1556 11.4169H23.734C23.3217 12.7003 22.6887 13.6178 21.8351 14.1695C20.9872 14.7212 19.9535 14.9999 18.7456 14.9999C17.9036 14.9999 17.1487 14.8664 16.4692 14.5934C15.7898 14.3205 15.2265 13.943 14.7503 13.4494C14.2857 12.95 13.9257 12.3635 13.6701 11.6724C13.4146 10.9872 13.2869 10.2264 13.2869 9.4018C13.2869 8.60621 13.4204 7.85709 13.6818 7.17184C13.9489 6.48078 14.3147 5.88264 14.7967 5.38322C15.2787 4.87799 15.8536 4.4831 16.5273 4.19274C17.1951 3.90238 17.9326 3.7572 18.7514 3.7572C19.6516 3.7572 20.4413 3.93142 21.1208 4.28566C21.7944 4.63409 22.3461 5.10447 22.7816 5.69681C23.2172 6.28914 23.525 6.96278 23.7166 7.71771C23.9082 8.47265 23.9779 9.26243 23.9198 10.0929H16.2253C16.2253 10.9407 16.5099 11.7421 16.9512 12.166ZM20.3136 6.56789C19.9651 6.18461 19.3786 5.97555 18.6585 5.97555C18.1881 5.97555 17.8049 6.05685 17.4913 6.21365C17.1893 6.37044 16.9396 6.56789 16.748 6.80018C16.5563 7.03827 16.4286 7.28798 16.3531 7.5493C16.2776 7.81063 16.2311 8.04292 16.2195 8.25198H20.9872C20.9233 7.50865 20.6678 6.95697 20.3136 6.56789Z" fill="#666666"/>
<path d="M21.597 0.987183H15.6272V2.43898H21.597V0.987183Z" fill="#666666"/>
</svg>
