<svg width="8" height="15" viewBox="0 0 8 15" fill="none" xmlns="http://www.w3.org/2000/svg">
<path d="M5.03969 14.9881C4.96527 14.9911 4.91764 14.997 4.87001 14.997C3.85195 14.997 2.83687 14.994 1.81881 15C1.67593 15 1.63723 14.9613 1.63723 14.8184C1.64021 12.4489 1.64021 10.0764 1.64021 7.70689C1.64021 7.64438 1.64021 7.58187 1.64021 7.50149C1.08652 7.50149 0.547727 7.50149 0 7.50149C0 6.65609 0 5.82557 0 4.97123C0.0565588 4.97123 0.110141 4.97123 0.160746 4.97123C0.607263 4.97123 1.05378 4.96825 1.5003 4.97421C1.61341 4.97421 1.64318 4.94146 1.64318 4.83132C1.63723 4.1675 1.63723 3.5007 1.64318 2.83688C1.64616 2.3725 1.72058 1.92003 1.93491 1.5003C2.24152 0.907925 2.72673 0.523921 3.33995 0.285778C3.84005 0.0893108 4.36694 0.0178681 4.8968 0.00893779C5.76007 -0.00296933 6.62334 0.00298422 7.4866 7.44198e-06C7.56697 7.44198e-06 7.63246 -0.00296934 7.63246 0.110148C7.62949 0.928763 7.62949 1.74738 7.62949 2.56599C7.62949 2.57492 7.62651 2.58385 7.6146 2.62255C7.564 2.62255 7.50744 2.62255 7.45088 2.62255C6.91506 2.62255 6.37924 2.61957 5.84342 2.62255C5.53383 2.62255 5.28378 2.74758 5.12602 3.01846C5.07839 3.09884 5.04862 3.20302 5.04862 3.29828C5.03969 3.80433 5.04862 4.31038 5.04266 4.81644C5.04266 4.93551 5.07839 4.96825 5.19448 4.96825C5.93868 4.9623 6.68287 4.96528 7.42707 4.96528C7.4866 4.96528 7.54316 4.96528 7.64437 4.96528C7.54018 5.81663 7.43897 6.65013 7.33479 7.49256C6.56082 7.49256 5.8077 7.49256 5.03969 7.49256C5.03969 9.99603 5.03969 12.4846 5.03969 14.9881Z" fill="#666666"/>
</svg>
