<svg width="19" height="15" viewBox="0 0 19 15" fill="none" xmlns="http://www.w3.org/2000/svg">
<path d="M0.0253974 13.3151C2.04268 13.4965 3.8604 12.9886 5.51486 11.7478C3.78421 11.5954 2.62682 10.7319 1.981 9.11368C2.547 9.18262 3.07671 9.20076 3.63908 9.04838C1.77419 8.46786 0.780063 7.24879 0.645819 5.28231C1.20456 5.54354 1.73065 5.7322 2.35107 5.73946C1.24447 4.9086 0.678473 3.83103 0.700242 2.47408C0.711127 1.85003 0.878024 1.26226 1.20819 0.707146C3.25812 3.10539 5.83052 4.43331 8.99793 4.65463C8.97979 4.51676 8.96891 4.40791 8.95439 4.29543C8.69316 2.28541 9.99932 0.4568 11.9948 0.0758392C13.2466 -0.163622 14.3532 0.166544 15.2892 1.03006C15.4344 1.16067 15.5577 1.1897 15.7391 1.14253C16.4684 0.957492 17.1614 0.689005 17.8326 0.326185C17.575 1.17518 17.0453 1.81375 16.3269 2.35072C16.4902 2.32169 16.6571 2.29993 16.8203 2.26727C16.9909 2.23099 17.1614 2.19108 17.3319 2.14391C17.4952 2.10037 17.6548 2.04958 17.8145 1.99516C17.9777 1.94073 18.141 1.87905 18.3333 1.8464C18.239 1.97702 18.1483 2.11489 18.0467 2.24187C17.6258 2.77522 17.1396 3.24326 16.6063 3.6605C16.5518 3.70404 16.5047 3.79837 16.5083 3.86368C16.5373 5.15169 16.3559 6.40705 15.9387 7.62612C15.1187 10.028 13.6892 11.9727 11.5449 13.3623C10.4855 14.048 9.3281 14.4979 8.09088 14.7592C6.86455 15.0168 5.63096 15.0639 4.39375 14.9188C3.1529 14.7737 1.97374 14.4072 0.863511 13.834C0.569627 13.6852 0.286628 13.5183 0 13.3587C0.0108846 13.3442 0.018141 13.3297 0.0253974 13.3151Z" fill="#666666"/>
</svg>
